<svg xmlns="http://www.w3.org/2000/svg" viewBox="0 0 64 64" role="img" aria-label="UI 용어 사전">
  <rect width="64" height="64" rx="14" fill="#312e81"/>
  <path d="M13 18.6c0-2.6 2.5-4.5 5-3.7l13 4.7c2.2.8 3.7 2.9 3.7 5.2v25.7c0 1.5-1.5 2.5-2.9 1.9l-14.9-6.5A6.5 6.5 0 0 1 13 40V18.6Z" fill="#fff"/>
  <path d="M51 18.6c0-2.6-2.5-4.5-5-3.7l-13 4.7a5.5 5.5 0 0 0-3.7 5.2v25.7c0 1.5 1.5 2.5 2.9 1.9l14.9-6.5A6.5 6.5 0 0 0 51 40V18.6Z" fill="#fff"/>
  <path d="M17 36.5c5.7.8 10.5 2.6 14.5 5.4M47 36.5c-5.7.8-10.5 2.6-14.5 5.4" fill="none" stroke="#312e81" stroke-width="4" stroke-linecap="round"/>
</svg>
