<svg xmlns="http://www.w3.org/2000/svg" viewBox="0 0 64 64">
  <rect width="64" height="64" rx="14" fill="#312e81"/>
  <path d="M16 18.5c0-2 1.6-3.5 3.6-3.5H29c2.2 0 4.2.7 5.8 2V48c-1.6-1.3-3.6-2-5.8-2h-9.4c-2 0-3.6-1.6-3.6-3.5v-24Z" fill="#fff"/>
  <path d="M48 18.5c0-2-1.6-3.5-3.6-3.5H35c-2.2 0-4.2.7-5.8 2V48c1.6-1.3 3.6-2 5.8-2h9.4c2 0 3.6-1.6 3.6-3.5v-24Z" fill="#e0f2fe"/>
  <path d="M24 25h6M24 32h6M38 25h5M38 32h5" stroke="#312e81" stroke-width="3" stroke-linecap="round"/>
  <path d="M32 17v31" stroke="#14b8a6" stroke-width="3" stroke-linecap="round"/>
</svg>
