<svg xmlns="http://www.w3.org/2000/svg" width="1200" height="630" viewBox="0 0 1200 630" role="img" aria-labelledby="title desc">
  <title id="title">UI 용어 사전</title>
  <desc id="desc">UI 컴포넌트와 패턴을 한국어와 영어로 찾아보는 레퍼런스</desc>
  <rect width="1200" height="630" fill="#f8fafc"/>
  <rect x="72" y="72" width="1056" height="486" rx="36" fill="#ffffff" stroke="#cbd5e1" stroke-width="2"/>
  <rect x="72" y="72" width="1056" height="104" rx="36" fill="#312e81"/>
  <path d="M72 140h1056v36H72z" fill="#312e81"/>
  <g transform="translate(118 104)">
    <rect width="54" height="54" rx="14" fill="#ffffff"/>
    <path d="M14 16c0-2 1.6-3.5 3.6-3.5h8.2c2 0 3.8.6 5.2 1.7v27.5c-1.4-1.1-3.2-1.7-5.2-1.7h-8.2c-2 0-3.6-1.6-3.6-3.5V16Z" fill="#312e81"/>
    <path d="M40 16c0-2-1.6-3.5-3.6-3.5h-8.2c-2 0-3.8.6-5.2 1.7v27.5c1.4-1.1 3.2-1.7 5.2-1.7h8.2c2 0 3.6-1.6 3.6-3.5V16Z" fill="#14b8a6"/>
  </g>
  <text x="192" y="140" fill="#ffffff" font-family="Arial, 'Noto Sans KR', sans-serif" font-size="36" font-weight="700">UI 용어 사전</text>
  <text x="120" y="292" fill="#0f172a" font-family="Arial, 'Noto Sans KR', sans-serif" font-size="76" font-weight="800">컴포넌트와 패턴을</text>
  <text x="120" y="382" fill="#0f172a" font-family="Arial, 'Noto Sans KR', sans-serif" font-size="76" font-weight="800">정확한 이름으로 찾기</text>
  <text x="124" y="452" fill="#475569" font-family="Arial, 'Noto Sans KR', sans-serif" font-size="30">한국어, 영어, aliases, visual reference를 한 화면에서 확인합니다.</text>
  <g transform="translate(794 246)">
    <rect width="246" height="204" rx="20" fill="#eef2ff" stroke="#c7d2fe"/>
    <rect x="28" y="30" width="78" height="28" rx="14" fill="#312e81"/>
    <rect x="118" y="30" width="74" height="28" rx="14" fill="#14b8a6"/>
    <rect x="28" y="82" width="190" height="20" rx="10" fill="#94a3b8"/>
    <rect x="28" y="120" width="152" height="20" rx="10" fill="#cbd5e1"/>
    <rect x="28" y="158" width="116" height="20" rx="10" fill="#cbd5e1"/>
  </g>
</svg>
